<svg width="512" height="512" viewBox="0 0 512 512" fill="none" xmlns="http://www.w3.org/2000/svg">
<g clip-path="url(#clip0_115_916)">
<mask id="mask0_115_916" style="mask-type:luminance" maskUnits="userSpaceOnUse" x="0" y="0" width="512" height="512">
<path d="M512 0H0V512H512V0Z" fill="white"/>
</mask>
<g mask="url(#mask0_115_916)">
<path d="M250 180C255.52 180 260 175.52 260 170C260 164.48 255.52 160 250 160C244.48 160 240 164.48 240 170C240 175.52 244.48 180 250 180ZM250 220C255.52 220 260 215.52 260 210C260 204.48 255.52 200 250 200C244.48 200 240 204.48 240 210C240 215.52 244.48 220 250 220Z" fill="white"/>
<path d="M509.07 102.93L409.07 2.93C407.189 1.06408 404.65 0.0118519 402 0H150C133.457 0 120 13.457 120 30V60.46C116.68 60.16 113.34 60 110 60C49.348 60 0 109.348 0 170C0 230.652 49.348 280 110 280C113.34 280 116.68 279.84 120 279.54V482C120 498.543 133.457 512 150 512H482C498.543 512 512 498.543 512 482V110C512 107.27 510.863 104.723 509.07 102.93ZM412 34.14L477.86 100H412V34.14ZM120 80.56C162.227 85.22 194.805 118.888 199.422 160.001H120V80.56ZM20 170C20 123.754 55.063 85.55 100 80.559V170C100 175.523 104.477 179.988 110 179.988H199.422C194.398 224.723 156.55 260 110 260C60.375 260 20 219.625 20 170ZM482 492H150C144.484 492 140 487.516 140 482V275.836C186.813 262.586 220 219.344 220 170C220 120.656 186.812 77.414 140 64.164V30C140 24.484 144.484 20 150 20H392V110C392 115.523 396.477 120 402 120H492V482C492 487.516 487.516 492 482 492Z" fill="white"/>
<path d="M256 80H362C367.523 80 372 75.523 372 70C372 64.477 367.523 60 362 60H256C250.477 60 246 64.477 246 70C246 75.523 250.477 80 256 80ZM256 120H362C367.523 120 372 115.523 372 110C372 104.477 367.523 100 362 100H256C250.477 100 246 104.477 246 110C246 115.523 250.477 120 256 120ZM110 220C82.43 220 60 197.57 60 170C60 164.477 55.523 160 50 160C44.477 160 40 164.477 40 170C40 208.598 71.402 240 110 240C115.523 240 120 235.523 120 230C120 224.477 115.523 220 110 220ZM439 266C422.457 266 409 279.457 409 296C409 302.2 410.89 307.969 414.125 312.754L344.684 387.285C341.868 386.432 338.942 385.999 336 386C331.781 386 327.7 386.875 323.95 388.52L292.672 349.746C294.867 345.497 296.008 340.783 296 336C296 319.457 282.543 306 266 306C249.457 306 236 319.457 236 336C235.994 340.593 237.047 345.126 239.078 349.246L202.613 388.77C198.661 386.938 194.356 385.992 190 386C173.457 386 160 399.457 160 416C160 432.543 173.457 446 190 446C206.543 446 220 432.543 220 416C220 411.328 218.934 406.824 216.922 402.754L253.387 363.23C257.339 365.062 261.644 366.008 266 366C270.219 366 274.3 365.125 278.05 363.48L309.328 402.254C307.133 406.503 305.992 411.217 306 416C306 432.543 319.457 446 336 446C352.543 446 366 432.543 366 416C366 409.8 364.11 404.031 360.875 399.246L430.316 324.715C433.132 325.568 436.058 326.001 439 326C455.543 326 469 312.543 469 296C469 279.457 455.543 266 439 266ZM190 426C184.484 426 180 421.516 180 416C180 410.484 184.484 406 190 406C195.52 406 200 410.477 200 416C200 421.516 195.516 426 190 426ZM256 336C256 330.484 260.484 326 266 326C271.516 326 276 330.484 276 336C276 341.52 271.523 346 266 346C260.477 346 256 341.52 256 336ZM336 426C330.484 426 326 421.516 326 416C326 410.48 330.477 406 336 406C341.516 406 346 410.484 346 416C346 421.516 341.516 426 336 426ZM439 306C433.484 306 429 301.516 429 296C429 290.484 433.484 286 439 286C444.516 286 449 290.484 449 296C449 301.516 444.516 306 439 306ZM280 170C280 175.523 284.477 180 290 180H442C447.523 180 452 175.523 452 170C452 164.477 447.523 160 442 160H290C284.477 160 280 164.477 280 170ZM442 200H290C284.477 200 280 204.477 280 210C280 215.523 284.477 220 290 220H442C447.523 220 452 215.523 452 210C452 204.477 447.523 200 442 200Z" fill="white"/>
</g>
</g>
<defs>
<clipPath id="clip0_115_916">
<rect width="512" height="512" fill="white"/>
</clipPath>
</defs>
</svg>
