<svg width="512" height="512" viewBox="0 0 512 512" fill="none" xmlns="http://www.w3.org/2000/svg">
<g clip-path="url(#clip0_118_924)">
<mask id="mask0_118_924" style="mask-type:luminance" maskUnits="userSpaceOnUse" x="0" y="0" width="512" height="512">
<path d="M512 0H0V512H512V0Z" fill="white"/>
</mask>
<g mask="url(#mask0_118_924)">
<path d="M508.591 96.4997L415.5 3.40909C413.318 1.22727 410.364 0 407.273 0H46.5458C20.8866 0 0 20.8746 0 46.5458V465.455C0 491.125 20.8866 512.001 46.5458 512.001H465.455C491.115 512.001 512.001 491.127 512.001 465.455V104.727C512.001 103.199 511.7 101.686 511.114 100.274C510.529 98.8626 509.672 97.58 508.591 96.4997ZM116.364 23.2724H372.365V162.909C372.365 175.738 361.932 186.181 349.092 186.181H139.636C126.795 186.181 116.364 175.738 116.364 162.909V23.2724ZM418.909 488.728H93.0906V279.273H418.909V488.728ZM488.728 465.455C488.728 478.284 478.295 488.728 465.455 488.728H442.183V267.636C442.184 266.108 441.884 264.594 441.299 263.182C440.715 261.77 439.858 260.486 438.777 259.406C437.696 258.325 436.413 257.468 435 256.883C433.588 256.299 432.075 255.998 430.546 255.999H81.455C79.9265 255.998 78.4129 256.299 77.0006 256.883C75.5883 257.468 74.3051 258.325 73.2243 259.406C72.1435 260.486 71.2864 261.77 70.702 263.182C70.1175 264.594 69.8172 266.108 69.8182 267.636V488.728H46.5458C33.7048 488.728 23.2735 478.284 23.2735 465.455V46.5458C23.2735 33.7167 33.7058 23.2735 46.5458 23.2735H93.0917V162.91C93.0906 188.58 113.977 209.455 139.636 209.455H349.091C374.75 209.455 395.637 188.58 395.637 162.909V23.2724H402.455L488.728 109.546V465.455Z" fill="white"/>
<path d="M290.91 162.909H337.456C338.984 162.91 340.498 162.61 341.91 162.025C343.323 161.441 344.606 160.584 345.687 159.503C346.767 158.422 347.625 157.139 348.209 155.727C348.793 154.314 349.094 152.801 349.093 151.272V58.1817C349.094 56.6532 348.793 55.1396 348.209 53.7273C347.625 52.315 346.767 51.0318 345.687 49.951C344.606 48.8702 343.323 48.0131 341.91 47.4287C340.498 46.8442 338.984 46.5439 337.456 46.5449H290.91C289.382 46.5439 287.868 46.8442 286.456 47.4287C285.044 48.0131 283.76 48.8702 282.68 49.951C281.599 51.0318 280.742 52.315 280.157 53.7273C279.573 55.1396 279.272 56.6532 279.273 58.1817V151.272C279.272 152.801 279.573 154.314 280.157 155.727C280.742 157.139 281.599 158.422 282.68 159.503C283.76 160.584 285.044 161.441 286.456 162.025C287.868 162.61 289.382 162.91 290.91 162.909ZM302.546 69.8184H325.818V139.637H302.546V69.8184Z" fill="white"/>
</g>
</g>
<defs>
<clipPath id="clip0_118_924">
<rect width="512" height="512" fill="white"/>
</clipPath>
</defs>
</svg>
